<svg xmlns="http://www.w3.org/2000/svg" viewBox="0 0 100 100">
  <defs>
    <linearGradient id="itmGrad" x1="0%" y1="0%" x2="100%" y2="100%">
      <stop offset="0%" stop-color="#0077b6"/>
      <stop offset="100%" stop-color="#023e8a"/>
    </linearGradient>
    <linearGradient id="goldStar" x1="0%" y1="0%" x2="100%" y2="100%">
      <stop offset="0%" stop-color="#ffd166"/>
      <stop offset="100%" stop-color="#f77f00"/>
    </linearGradient>
  </defs>
  <rect width="100" height="100" rx="22" fill="#03071e" stroke="#0077b6" stroke-width="2"/>
  <!-- University Shield -->
  <path d="M 50 18 L 74 26 C 74 54 50 68 50 72 C 50 68 26 54 26 26 Z" fill="url(#itmGrad)" stroke="url(#goldStar)" stroke-width="2"/>
  <!-- Book / Knowledge -->
  <path d="M 36 44 Q 50 40 50 48 Q 50 40 64 44 L 64 54 Q 50 50 50 58 Q 50 50 36 54 Z" fill="#ffffff"/>
  <!-- Star on top -->
  <polygon points="50,23 52,28 57,28 53,31 55,36 50,33 45,36 47,31 43,28 48,28" fill="#ffd166"/>
  <text x="50" y="86" text-anchor="middle" font-family="'Segoe UI', Roboto, sans-serif" font-weight="900" font-size="11" fill="#ffd166" letter-spacing="1">ITM GWALIOR</text>
</svg>